<svg xmlns="http://www.w3.org/2000/svg" viewBox="0 0 470 128" role="img" aria-labelledby="title desc">
<title id="title">Animoa</title><desc id="desc">Logo Animoa : une patte en forme de cœur, le nom Animoa et la signature Toute sa vie, près de vous.</desc>
<g transform="translate(5 7) scale(.88)">
  <g fill="#91AC9E">
    <ellipse cx="27" cy="35" rx="10" ry="15" transform="rotate(-23 27 35)"/>
    <ellipse cx="51" cy="23" rx="11" ry="17" transform="rotate(-8 51 23)"/>
    <ellipse cx="77" cy="23" rx="11" ry="17" transform="rotate(8 77 23)"/>
    <ellipse cx="101" cy="35" rx="10" ry="15" transform="rotate(23 101 35)"/>
  </g>
  <path d="M64 108C54 99 35 88 27 72C18 55 29 42 43 42C53 42 60 49 64 56C68 49 75 42 85 42C99 42 110 55 101 72C93 88 74 99 64 108Z" fill="none" stroke="#76988A" stroke-width="12" stroke-linecap="round" stroke-linejoin="round"/>
  <path d="M97 63C95 79 78 94 64 106" fill="none" stroke="#F07E62" stroke-width="12" stroke-linecap="round"/>
</g>
<text x="122" y="74" fill="#315F52" font-family="Segoe UI, Arial, sans-serif" font-size="63" font-weight="500" letter-spacing="-2">Animoa</text>
<!-- petit cœur distinctif au-dessus du i -->
<path d="M224 25C219 18 207 20 207 30C207 39 224 49 224 49C224 49 241 39 241 30C241 20 229 18 224 25Z" fill="#F07E62" transform="scale(.48) translate(238 15)"/>
<text x="124" y="108" fill="#7D9B8F" font-family="Segoe UI, Arial, sans-serif" font-size="19" letter-spacing="1.4">Toute sa vie, près de vous.</text>
</svg>